#!OML:ASF E:\emotionWalksFemale\Project 1\Capture day 1\Session 1\Female1.ASF
:FULLY-SPECIFIED
:DEGREES
1747
root 9.16818 14.9122 40.3194 -2.4737 -213.541 363.407
lowerback -1.9214 -4.73471 2.39879
upperback -5.84286 -5.83312 3.42977
thorax -4.85911 -2.78236 2.33844
lowerneck -3.7096 14.0091 9.1702
upperneck 32.3498 23.2857 -2.41287
head 12.7969 12.2921 0.793409
rclavicle 2.8625e-014 1.43125e-014
rhumerus -62.218 4.06263 -82.0751
rradius 32.889
rwrist 10.3937
rhand 7.16615 -51.6577
rfingers 7.12502
rthumb 32.4338 1001.22
lclavicle 2.8625e-014 1.43125e-014
lhumerus -51.1779 2.89335 85.6902
lradius 32.061
lwrist -20.5864
lhand 9.07129 -20.7152
lfingers 7.12502
lthumb 34.245 6.01381
rfemur -1.78843 16.977 31.6821
rtibia 30.5268
rfoot -25.3578 -20.8095
rtoes 0.241475
lfemur -4.71215 11.5369 -13.3324
ltibia 38.5797
lfoot -36.8202 25.7621
ltoes 0.448796
1748
root 9.1668 14.917 40.3392 -2.4898 -213.486 363.474
lowerback -2.02275 -4.7297 2.41252
upperback -5.82765 -5.82332 3.51163
thorax -4.77908 -2.77437 2.4046
lowerneck -3.66584 14.0533 8.91023
upperneck 32.2699 23.3212 -2.27527
head 12.6995 12.3015 0.863649
rclavicle 5.08889e-014 2.3059e-014
rhumerus -62.0408 4.52367 -83.3395
rradius 33.2085
rwrist 7.59271
rhand 7.50514 -52.7875
rfingers 7.12502
rthumb 32.7564 1000.16
lclavicle 5.08889e-014 2.3059e-014
lhumerus -51.3286 1.73155 87.032
lradius 32.1036
lwrist -20.7771
lhand 10.4019 -22.2857
lfingers 7.12502
lthumb 35.5075 4.15035
rfemur -1.67397 17.0918 31.7929
rtibia 30.8033
rfoot -26.7561 -19.8377
rtoes 6.1032
lfemur -4.71154 12.4412 -12.959
ltibia 38.5048
lfoot -36.4363 25.0996
ltoes 0.0389205
1749
root 9.1636 14.9111 40.357 -2.51304 -213.303 363.33
lowerback -2.1727 -4.79447 2.33328
upperback -5.86261 -5.91125 3.51927
thorax -4.72009 -2.8132 2.44578
lowerneck -3.73034 14.0608 8.75585
upperneck 32.279 23.3683 -2.31771
head 12.704 12.3016 0.882182
rclavicle 2.78299e-015 -5.08889e-014
rhumerus -61.794 4.94261 -84.5523
rradius 33.4397
rwrist 5.15011
rhand 8.457 -53.26
rfingers 7.12502
rthumb 33.6614 999.882
lclavicle 2.78299e-015 -5.08889e-014
lhumerus -51.464 0.497889 88.366
lradius 32.104
lwrist -20.4002
lhand 10.6859 -24.0507
lfingers 7.12502
lthumb 35.7766 2.32036
rfemur -2.06398 16.872 31.6532
rtibia 30.8171
rfoot -25.5044 -21.4219
rtoes -0.835519
lfemur -4.92015 11.009 -13.4353
ltibia 38.6019
lfoot -37.8381 25.324
ltoes 3.72553
1750
root 9.16232 14.9187 40.3797 -2.72815 -213.04 363.155
lowerback -2.0537 -4.86789 2.10786
upperback -5.87642 -6.00948 3.52477
thorax -4.77464 -2.85323 2.58799
lowerneck -3.94227 14.1132 8.05714
upperneck 32.4465 23.4014 -1.85782
head 12.6492 12.2928 1.15093
rclavicle -6.0033e-014 -8.0309e-014
rhumerus -61.6881 5.32065 -85.7106
rradius 33.7887
rwrist 3.30304
rhand 9.26417 -53.5105
rfingers 7.12502
rthumb 34.4281 999.802
lclavicle -6.0033e-014 -8.0309e-014
lhumerus -51.6354 -0.741663 89.694
lradius 32.1591
lwrist -20.5383
lhand 10.996 -25.7624
lfingers 7.12502
lthumb 36.0704 0.536737
rfemur -1.84374 16.8447 31.5755
rtibia 30.9874
rfoot -26.8989 -20.7284
rtoes 4.00849
lfemur -4.92453 11.7056 -13.3173
ltibia 38.5808
lfoot -37.217 24.9451
ltoes 1.32938
1751
root 9.15507 14.8928 40.412 -3.06016 -212.674 363.093
lowerback -1.64914 -4.96484 1.771
upperback -5.86523 -6.13118 3.62843
thorax -4.94048 -2.89748 2.91839
lowerneck -4.10472 14.0885 7.98596
upperneck 32.5881 23.4291 -1.92529
head 12.743 12.2867 1.16967
rclavicle -6.36111e-014 5.64548e-014
rhumerus -61.5738 5.60969 -86.4373
rradius 34.0705
rwrist 2.55372
rhand 11.016 -53.6308
rfingers 7.12502
rthumb 36.0893 1000.07
lclavicle -6.36111e-014 5.64548e-014
lhumerus -51.7034 -1.74111 90.9658
lradius 32.2357
lwrist -21.6061
lhand 10.5231 -25.9984
lfingers 7.12502
lthumb 35.6224 0.409971
rfemur -1.72196 16.6315 31.6737
rtibia 30.913
rfoot -26.445 -21.4754
rtoes 1.47874
lfemur -4.88744 12.3124 -13.0482
ltibia 38.6727
lfoot -36.5175 24.5964
ltoes -0.933678
1752
root 9.14998 14.8792 40.4357 -3.1318 -212.38 363.108
lowerback -1.68615 -5.01548 1.70639
upperback -5.84095 -6.20138 3.65274
thorax -4.88177 -2.92964 2.97487
lowerneck -4.12907 13.9882 8.33332
upperneck 32.6149 23.3465 -2.22205
head 12.8485 12.2512 1.02523
rclavicle 5.96354e-014 -3.97569e-015
rhumerus -61.6935 6.29309 -88.1381
rradius 34.8333
rwrist 0.0606502
rhand 7.90813 -55.1071
rfingers 7.12502
rthumb 33.1397 997.922
lclavicle 5.96354e-014 -3.97569e-015
lhumerus -51.6576 -2.31253 91.6595
lradius 32.2331
lwrist -23.2807
lhand 8.5952 -25.7368
lfingers 7.12502
lthumb 33.7927 1.09274
rfemur -1.86122 16.4575 31.7398
rtibia 30.9495
rfoot -26.1368 -22.4484
rtoes -2.26353
lfemur -5.04916 12.0349 -13.023
ltibia 38.7713
lfoot -36.3415 24.8093
ltoes -1.26905
